<svg width="17" height="17" viewBox="0 0 17 17" fill="none" xmlns="http://www.w3.org/2000/svg">
<path d="M8 9.0625C5.6225 9.0625 3.6875 7.1275 3.6875 4.75C3.6875 2.3725 5.6225 0.4375 8 0.4375C10.3775 0.4375 12.3125 2.3725 12.3125 4.75C12.3125 7.1275 10.3775 9.0625 8 9.0625ZM8 1.5625C6.245 1.5625 4.8125 2.995 4.8125 4.75C4.8125 6.505 6.245 7.9375 8 7.9375C9.755 7.9375 11.1875 6.505 11.1875 4.75C11.1875 2.995 9.755 1.5625 8 1.5625Z" fill="#FF0000"/>
<path d="M1.55762 16.5625C1.25012 16.5625 0.995117 16.3075 0.995117 16C0.995117 12.7975 4.13761 10.1875 8.00011 10.1875C8.75761 10.1875 9.50011 10.285 10.2201 10.4875C10.5201 10.57 10.6926 10.8775 10.6101 11.1775C10.5276 11.4775 10.2201 11.65 9.92011 11.5675C9.30511 11.395 8.66011 11.3125 8.00011 11.3125C4.76011 11.3125 2.12012 13.4125 2.12012 16C2.12012 16.3075 1.86512 16.5625 1.55762 16.5625Z" fill="#FF0000"/>
<path d="M12.5 16.5625C11.255 16.5625 10.085 15.9025 9.455 14.83C9.1175 14.29 8.9375 13.6525 8.9375 13C8.9375 11.905 9.425 10.8925 10.2725 10.2175C10.9025 9.71498 11.6975 9.4375 12.5 9.4375C14.465 9.4375 16.0625 11.035 16.0625 13C16.0625 13.6525 15.8825 14.29 15.545 14.8375C15.3575 15.1525 15.1175 15.4375 14.8325 15.6775C14.21 16.2475 13.3775 16.5625 12.5 16.5625ZM12.5 10.5625C11.945 10.5625 11.42 10.75 10.9775 11.1025C10.4 11.56 10.0625 12.2575 10.0625 13C10.0625 13.4425 10.1825 13.8775 10.415 14.2525C10.85 14.9875 11.6525 15.4375 12.5 15.4375C13.0925 15.4375 13.6625 15.22 14.0975 14.83C14.2925 14.665 14.4575 14.47 14.5775 14.26C14.8175 13.8775 14.9375 13.4425 14.9375 13C14.9375 11.6575 13.8425 10.5625 12.5 10.5625Z" fill="#FF0000"/>
<path d="M12.0724 14.305C11.9299 14.305 11.7874 14.2526 11.6749 14.1401L10.9324 13.3976C10.7149 13.1801 10.7149 12.82 10.9324 12.6025C11.1499 12.385 11.5099 12.385 11.7274 12.6025L12.0874 12.9626L13.2874 11.8525C13.5124 11.6425 13.8724 11.6576 14.0824 11.8826C14.2924 12.1076 14.2774 12.4676 14.0524 12.6776L12.4549 14.155C12.3424 14.2525 12.2074 14.305 12.0724 14.305Z" fill="#FF0000"/>
</svg>
